<svg viewBox="0 0 32 32" fill="none" xmlns="http://www.w3.org/2000/svg">
  <g clip-path="url(#clip0_2229_2435)">
    <path
      d="M3 5C3 3.89543 3.89543 3 5 3H27C28.1046 3 29 3.89543 29 5V7C29 8.10457 28.1046 9 27 9H5C3.89543 9 3 8.10457 3 7V5ZM4 11H28V23.5C28 26.5376 25.5376 29 22.5 29H9.5C6.46243 29 4 26.5376 4 23.5V11ZM13 14C12.4477 14 12 14.4477 12 15C12 15.5523 12.4477 16 13 16H19C19.5523 16 20 15.5523 20 15C20 14.4477 19.5523 14 19 14H13Z"
      fill="url(#paint0_linear_2229_2435)" />
  </g>
  <defs>
    <linearGradient id="paint0_linear_2229_2435" x1="16" y1="3" x2="16" y2="29" gradientUnits="userSpaceOnUse">
      <stop offset="0.296875" stop-color="#2886DE" />
      <stop offset="1" stop-color="#316BAA" />
    </linearGradient>
    <clipPath id="clip0_2229_2435">
      <rect width="32" height="32" fill="white" />
    </clipPath>
  </defs>
</svg>